<svg width="25" height="25" viewBox="0 0 25 25" fill="none" xmlns="http://www.w3.org/2000/svg">
<g clip-path="url(#clip0_21_157)">
<path d="M24.9418 9.72471L24.9421 9.72462L24.9343 9.66055C24.9342 9.65945 24.9341 9.65861 24.934 9.65751C24.9339 9.65659 24.9338 9.65574 24.9336 9.65482L24.9046 9.41386C24.8988 9.36547 24.8922 9.31033 24.8846 9.24743L24.8785 9.19736L24.8661 9.19887C24.5612 7.46455 23.7235 5.81867 22.426 4.41332C21.1347 3.01472 19.4569 1.91044 17.5742 1.21986C15.9611 0.628181 14.2496 0.328125 12.4873 0.328125C10.1081 0.328125 7.7974 0.887684 5.80518 1.94627C1.96347 3.98748 -0.302256 7.7394 0.0326199 11.5048C0.205959 13.4533 0.969294 15.308 2.24017 16.8686C3.43635 18.3376 5.05449 19.5229 6.91957 20.2966C8.06635 20.7723 9.20022 20.9965 10.4008 21.2338L10.5413 21.2616C10.8719 21.3271 10.9608 21.4169 10.9837 21.4525C11.0261 21.5186 11.0039 21.6489 10.9869 21.7206C10.9712 21.7868 10.955 21.8528 10.9388 21.9189C10.8099 22.4446 10.6766 22.9882 10.7814 23.5876C10.9017 24.2765 11.332 24.6717 11.9618 24.6718H11.9619C12.6394 24.6718 13.4104 24.2174 13.9205 23.9167L13.9886 23.8767C15.2057 23.1619 16.3523 22.3556 17.2152 21.7331C19.1035 20.3708 21.2438 18.8265 22.8483 16.8288C24.4641 14.8168 25.2253 12.2313 24.9418 9.72471ZM7.78535 13.5367H5.62855C5.30261 13.5367 5.03839 13.2724 5.03839 12.9465V8.41944C5.03839 8.0935 5.30261 7.82927 5.62855 7.82927C5.95449 7.82927 6.21871 8.0935 6.21871 8.41944V12.3563H7.78526C8.1112 12.3563 8.37542 12.6206 8.37542 12.9465C8.37551 13.2724 8.11128 13.5367 7.78535 13.5367ZM10.0353 12.9305C10.0353 13.2564 9.77108 13.5206 9.44514 13.5206C9.1192 13.5206 8.85497 13.2564 8.85497 12.9305V8.40342C8.85497 8.07748 9.1192 7.81325 9.44514 7.81325C9.77108 7.81325 10.0353 8.07748 10.0353 8.40342V12.9305ZM15.3699 12.9305C15.3699 13.1862 15.2052 13.4128 14.962 13.4918C14.902 13.5113 14.8405 13.5207 14.7798 13.5207C14.5944 13.5207 14.4153 13.4331 14.3021 13.2772L12.1769 10.3503V12.9306C12.1769 13.2565 11.9127 13.5207 11.5868 13.5207C11.2608 13.5207 10.9966 13.2565 10.9966 12.9306V8.533C10.9966 8.27729 11.1612 8.05067 11.4045 7.97167C11.6478 7.89276 11.9141 7.97926 12.0644 8.18624L14.1895 11.1132V8.40342C14.1895 8.07748 14.4538 7.81325 14.7797 7.81325C15.1056 7.81325 15.3699 8.07748 15.3699 8.40342V12.9305ZM19.6702 13.4277H16.7493C16.4234 13.4277 16.1592 13.1635 16.1592 12.8376V10.5741V8.31051C16.1592 7.98457 16.4234 7.72034 16.7493 7.72034H19.5796C19.9055 7.72034 20.1698 7.98457 20.1698 8.31051C20.1698 8.63645 19.9055 8.90067 19.5796 8.90067H17.3395V9.98396H19.1574C19.4833 9.98396 19.7475 10.2482 19.7475 10.5741C19.7475 10.9001 19.4833 11.1643 19.1574 11.1643H17.3395V12.2474H19.6702C19.9962 12.2474 20.2604 12.5116 20.2604 12.8376C20.2604 13.1635 19.9962 13.4277 19.6702 13.4277Z" fill="white"/>
</g>
<defs>
<clipPath id="clip0_21_157">
<rect width="25" height="25" fill="white"/>
</clipPath>
</defs>
</svg>
