<svg width="29" height="30" viewBox="0 0 29 30" fill="none" xmlns="http://www.w3.org/2000/svg">
<rect x="-1.5" y="1.5" width="26" height="5" rx="1.5" transform="matrix(-1 0 0 1 26 6)" stroke="#C8000A" stroke-width="3"/>
<path d="M25 21.0622V12H5V25C5 26.6569 6.34315 28 8 28H22C23.6569 28 25 26.6569 25 25V23.6553" stroke="#C8000A" stroke-width="3"/>
<path d="M15 8L15 28" stroke="#C8000A" stroke-width="3"/>
<path d="M17.7978 7.39564C23.0663 7.39564 24.9109 1.95606 19.7921 1.95605C13.997 1.95605 14.7659 4.51433 14.7578 6.68045" stroke="#C8000A" stroke-width="3"/>
<path d="M11.564 7.39564C6.29547 7.39564 4.45089 1.95606 9.5697 1.95605C15.3648 1.95605 14.5959 4.51433 14.6041 6.68045" stroke="#C8000A" stroke-width="3"/>
</svg>
