<svg width="15" height="15" viewBox="0 0 15 15" fill="none" xmlns="http://www.w3.org/2000/svg">
<path d="M1.0354 7.34521C1.0354 8.17781 1.19939 9.00225 1.51801 9.77146C1.83663 10.5407 2.30364 11.2396 2.89237 11.8283C3.4811 12.4171 4.18003 12.8841 4.94924 13.2027C5.71846 13.5213 6.5429 13.6853 7.37549 13.6853C8.20808 13.6853 9.03252 13.5213 9.80173 13.2027C10.5709 12.8841 11.2699 12.4171 11.8586 11.8283C12.4473 11.2396 12.9143 10.5407 13.233 9.77146C13.5516 9.00225 13.7156 8.17781 13.7156 7.34521C13.7156 5.66372 13.0476 4.05109 11.8586 2.8621C10.6696 1.6731 9.05698 1.00513 7.37549 1.00513C5.69399 1.00513 4.08137 1.6731 2.89237 2.8621C1.70337 4.05109 1.0354 5.66372 1.0354 7.34521Z" stroke="currentColor" stroke-width="1.5" stroke-linecap="round" stroke-linejoin="round"/>
<path d="M7.37549 3.823V7.34527L9.48885 9.45863" stroke="currentColor" stroke-width="1.5" stroke-linecap="round" stroke-linejoin="round"/>
</svg>
