<svg width="24" height="25" viewBox="0 0 24 25" fill="none" xmlns="http://www.w3.org/2000/svg">
<path d="M9.19479 15.7719V13.6682M9.19479 13.6682V6.65556C9.19479 6.28358 9.34256 5.92685 9.60558 5.66382C9.86861 5.4008 10.2253 5.25304 10.5973 5.25304C10.9693 5.25304 11.326 5.4008 11.589 5.66382C11.8521 5.92685 11.9998 6.28358 11.9998 6.65556V12.2656H16.7025C17.9788 12.2656 19.0124 13.2993 19.0124 14.5756V15.7719C19.0124 17.4458 18.3475 19.0511 17.1639 20.2347C15.9803 21.4183 14.375 22.0833 12.7011 22.0833H11.9998C10.5119 22.0833 9.085 21.4922 8.03291 20.4401C6.98082 19.388 6.38976 17.9611 6.38976 16.4732C6.38976 15.7292 6.68529 15.0158 7.21133 14.4897C7.73738 13.9637 8.45085 13.6682 9.19479 13.6682ZM14.1036 9.46059H16.9087C17.8386 9.46059 18.7304 9.09118 19.388 8.43362C20.0455 7.77606 20.4149 6.88422 20.4149 5.9543C20.4149 5.02437 20.0455 4.13253 19.388 3.47497C18.7304 2.81741 17.8386 2.448 16.9087 2.448H7.09102C6.16109 2.448 5.26925 2.81741 4.61169 3.47497C3.95413 4.13253 3.58472 5.02437 3.58472 5.9543C3.58472 6.88422 3.95413 7.77606 4.61169 8.43362C5.26925 9.09118 6.16109 9.46059 7.09102 9.46059" stroke="currentColor" stroke-width="2"/>
</svg>
