<svg width="24" height="25" viewBox="0 0 24 25" fill="none" xmlns="http://www.w3.org/2000/svg">
<path d="M5.76563 21.1719C6.47426 21.1719 7.15386 20.8904 7.65494 20.3893M5.76563 21.1719C5.057 21.1719 4.3774 20.8904 3.87633 20.3893M5.76563 21.1719H20.9063V15.8282H12.216M5.76563 21.1719C5.41472 21.1719 5.06724 21.1031 4.74304 20.9688C4.41884 20.8345 4.12444 20.6375 3.87633 20.3893M5.76563 21.1719C6.11655 21.1719 6.46402 21.1031 6.78822 20.9688C7.11242 20.8345 7.40682 20.6375 7.65494 20.3893M7.65494 20.3893C8.15601 19.8883 8.43751 19.2087 8.43751 18.5V12.0497M7.65494 20.3893L12.216 15.8282M8.43751 12.0497V3.35938H3.09375V18.5C3.09375 19.2087 3.37525 19.8883 3.87633 20.3893M8.43751 12.0497L16.9051 3.58203L17.1144 3.35938L20.8996 7.14454L12.216 15.8282" stroke="currentColor" stroke-width="2" stroke-linecap="round" stroke-linejoin="round"/>
<path d="M7.65503 20.3895L20.8995 7.14454L17.1144 3.35938L8.43745 12.0497" stroke="currentColor" stroke-width="2" stroke-linecap="round" stroke-linejoin="round"/>
<path d="M12.216 15.8281H20.9063V21.1719H6.87891" stroke="currentColor" stroke-width="2" stroke-linecap="round" stroke-linejoin="round"/>
<path d="M12.216 15.8281H20.9063V21.1719H6.87891" stroke="currentColor" stroke-width="2" stroke-linecap="round" stroke-linejoin="round"/>
<path d="M5.76563 21.1719C6.47426 21.1719 7.15386 20.8904 7.65494 20.3893C8.15601 19.8883 8.43751 19.2087 8.43751 18.5V3.35938H3.09375V18.5C3.09375 19.2087 3.37525 19.8883 3.87633 20.3893C4.3774 20.8904 5.057 21.1719 5.76563 21.1719Z" stroke="currentColor" stroke-width="2" stroke-linecap="round" stroke-linejoin="round"/>
</svg>
