<svg width="15" height="14" viewBox="0 0 15 14" fill="none" xmlns="http://www.w3.org/2000/svg">
<path d="M4.61286 0.740234C4.95726 0.740234 6.33486 3.83983 6.33486 4.18423C6.33486 4.87303 5.30166 5.56183 4.95726 6.25063C4.61286 6.93943 5.30166 7.62823 5.99046 8.31703C6.2591 8.58566 7.36806 9.69463 8.05686 9.35023C8.74566 9.00583 9.43446 7.97263 10.1233 7.97263C10.4677 7.97263 13.5673 9.35023 13.5673 9.69463C13.5673 11.0722 12.5341 12.1054 11.5009 12.4498C10.4677 12.7942 9.77886 12.7942 8.40126 12.4498C7.02366 12.1054 5.99046 11.761 4.26846 10.039C2.54646 8.31703 2.20207 7.28383 1.85767 5.90623C1.51327 4.52863 1.51327 3.83983 1.85767 2.80663C2.20207 1.77343 3.23526 0.740234 4.61286 0.740234Z" stroke="#727071" stroke-width="1.5" stroke-linecap="round" stroke-linejoin="round"/>
</svg>
