<svg width="24" height="25" viewBox="0 0 24 25" fill="none" xmlns="http://www.w3.org/2000/svg">
<path d="M6 10.7656C5.60218 10.7656 5.22064 10.9237 4.93934 11.205C4.65804 11.4863 4.5 11.8678 4.5 12.2656C4.5 12.6634 4.65804 13.045 4.93934 13.3263C5.22064 13.6076 5.60218 13.7656 6 13.7656C6.39782 13.7656 6.77936 13.6076 7.06066 13.3263C7.34196 13.045 7.5 12.6634 7.5 12.2656C7.5 11.8678 7.34196 11.4863 7.06066 11.205C6.77936 10.9237 6.39782 10.7656 6 10.7656ZM10.5 12.2656C10.5 11.8678 10.658 11.4863 10.9393 11.205C11.2206 10.9237 11.6022 10.7656 12 10.7656C12.3978 10.7656 12.7794 10.9237 13.0607 11.205C13.342 11.4863 13.5 11.8678 13.5 12.2656C13.5 12.6634 13.342 13.045 13.0607 13.3263C12.7794 13.6076 12.3978 13.7656 12 13.7656C11.6022 13.7656 11.2206 13.6076 10.9393 13.3263C10.658 13.045 10.5 12.6634 10.5 12.2656ZM16.5 12.2656C16.5 11.8678 16.658 11.4863 16.9393 11.205C17.2206 10.9237 17.6022 10.7656 18 10.7656C18.3978 10.7656 18.7794 10.9237 19.0607 11.205C19.342 11.4863 19.5 11.8678 19.5 12.2656C19.5 12.6634 19.342 13.045 19.0607 13.3263C18.7794 13.6076 18.3978 13.7656 18 13.7656C17.6022 13.7656 17.2206 13.6076 16.9393 13.3263C16.658 13.045 16.5 12.6634 16.5 12.2656Z" fill="black" stroke="currentColor"/>
</svg>
